<svg width="1392" height="868" viewBox="0 0 1392 868" fill="none" xmlns="http://www.w3.org/2000/svg">
<path d="M151.267 407.796L152.333 407.404L152.051 407.454L152.3 407.346C149.282 400.425 150.152 391.784 154.221 382.572C158.281 373.381 165.45 363.813 174.677 355.223C193.159 338.016 219.573 325.019 245.024 326.636C270.726 328.281 298.059 338.115 319.343 354.081C340.624 370.044 355.73 392.03 357.315 417.966C360.503 470.104 322.139 519.17 261.119 528.988C246.287 531.374 232.098 525.235 219.025 514.357C205.955 503.48 194.179 488.002 184.27 472.125C174.37 456.261 166.383 440.076 160.869 427.849C158.112 421.738 155.976 416.621 154.53 413.034C153.807 411.241 153.257 409.83 152.887 408.869C152.703 408.389 152.564 408.021 152.471 407.774C152.424 407.651 152.39 407.557 152.367 407.495L152.341 407.426L152.335 407.409L152.333 407.405C152.333 407.404 152.333 407.404 151.267 407.796L151.267 407.796Z" stroke="white" stroke-width="3"/>
<path d="M440.485 660.009L441.332 658.887L438.929 657.073L438.929 657.315C405.961 635.383 383.413 609.151 371.234 585.451C365.002 573.323 361.508 561.904 360.689 552.095C359.868 542.276 361.734 534.198 366.053 528.569C370.26 523.085 377.666 520.554 387.333 520.501C396.97 520.448 408.549 522.867 420.643 526.924C444.831 535.038 470.682 549.566 486.47 563.185C502.37 576.901 535.886 609.084 562.054 641.889C575.145 658.301 586.331 674.788 592.576 689.146C598.876 703.632 599.887 715.325 593.762 722.773C590.735 726.454 586.235 728.407 580.446 728.878C574.634 729.352 567.638 728.317 559.852 726.124C544.285 721.739 525.938 712.834 508.338 702.854C490.757 692.886 474.003 681.893 461.639 673.388C455.459 669.136 450.379 665.509 446.846 662.945C445.079 661.663 443.699 660.647 442.761 659.953C442.293 659.605 441.934 659.338 441.694 659.158C441.574 659.068 441.483 659 441.422 658.955L441.354 658.903L441.337 658.891L441.333 658.888C441.332 658.887 441.332 658.887 440.485 660.009Z" stroke="white" stroke-width="3"/>
<path d="M528.361 448.16C528.361 448.16 528.361 448.161 526.939 448.637L528.268 447.944C527.1 445.703 526.313 441.641 526.539 436.542C526.763 431.489 527.976 425.574 530.642 419.704C535.951 408.017 547.048 396.436 567.814 392.197C588.719 387.929 602.517 392.225 611.52 399.338C620.579 406.495 625.001 416.676 626.773 424.522C628.564 432.45 630.025 446.381 625.458 459.014C623.184 465.303 619.422 471.256 613.465 476.016C607.507 480.777 599.274 484.408 587.959 485.927C565.481 488.945 550.638 479.534 541.352 469.339C536.694 464.226 533.438 458.915 531.346 454.878C530.302 452.861 529.551 451.169 529.063 449.986C528.819 449.395 528.641 448.931 528.525 448.619C528.467 448.463 528.425 448.345 528.398 448.268C528.384 448.229 528.374 448.2 528.368 448.183L528.362 448.164L528.361 448.16L528.361 448.16Z" stroke="white" stroke-width="3"/>
<path d="M722.739 608.163C722.697 608.121 722.661 608.085 722.632 608.056C700.213 574.837 695.018 544.652 700.527 519.002C706.049 493.291 722.371 471.922 743.35 456.499C764.334 441.072 789.887 431.662 813.686 429.83C837.507 427.996 859.343 433.759 873.197 448.367C901.675 478.396 915.145 502.933 913.509 528.294C911.868 553.728 895.014 580.477 861.457 614.847C844.869 631.837 827.943 639.837 811.918 642.362C795.871 644.89 780.609 641.946 767.347 636.852C754.083 631.758 742.871 624.531 734.966 618.565C731.017 615.584 727.901 612.925 725.776 611.014C724.714 610.059 723.9 609.291 723.354 608.765C723.081 608.502 722.875 608.299 722.739 608.163Z" stroke="white" stroke-width="3"/>
<path d="M803.651 335.779L803.586 335.773L803.534 335.773L803.527 335.773C803.507 335.772 803.475 335.771 803.432 335.769C803.346 335.765 803.215 335.759 803.04 335.75C802.689 335.73 802.164 335.696 801.478 335.637C800.106 335.52 798.09 335.307 795.54 334.921C790.438 334.15 783.202 332.692 774.705 329.946C757.711 324.453 735.691 313.813 715.587 293.222C699.401 276.644 694.808 262.386 697.022 250.445C699.249 238.43 708.453 228.249 721.007 220.066C733.53 211.904 749.162 205.884 763.777 202.121C778.418 198.352 791.865 196.892 800.007 197.727L800.008 197.727C800.553 197.782 801.761 197.858 803.546 197.97C815.892 198.742 855.794 201.238 893.826 210.696C915.596 216.109 936.576 223.766 951.352 234.573C966.076 245.342 974.469 259.083 971.647 276.838C968.804 294.726 957.137 307.398 940.942 316.367C924.72 325.349 904.093 330.529 883.706 333.421C863.339 336.31 843.32 336.9 828.382 336.767C820.916 336.7 814.727 336.452 810.406 336.222C808.246 336.106 806.554 335.995 805.403 335.913C804.828 335.872 804.388 335.838 804.093 335.815C803.945 335.803 803.834 335.794 803.76 335.788L803.677 335.781L803.657 335.779L803.652 335.779C803.651 335.779 803.651 335.779 803.521 337.273L803.651 335.779Z" stroke="white" stroke-width="3"/>
<path d="M573.222 162.346C578.111 175.286 577.746 191.073 573.433 208.052C569.124 225.016 560.905 243.043 550.257 260.365C528.94 295.043 498.057 326.626 469.83 341.081L469.83 341.081C441.735 355.472 417.851 352.078 400.971 345.12C392.513 341.634 385.805 337.247 381.212 333.733C378.918 331.976 377.155 330.441 375.972 329.349C375.38 328.804 374.933 328.37 374.637 328.075C374.628 328.066 374.62 328.058 374.612 328.05L374.612 328.007L374.147 327.564C362.311 316.277 359.043 304.301 361.054 292.462C363.084 280.506 370.534 268.507 380.527 257.42C400.508 235.249 430.123 217.307 444.226 211.358C447.946 209.789 452.46 206.999 457.497 203.495C462.551 199.978 468.211 195.686 474.231 191.064C475.446 190.132 476.675 189.186 477.917 188.231C489.018 179.69 501.165 170.345 513.095 162.648C526.406 154.06 539.211 147.685 549.818 146.648C555.078 146.134 559.705 146.941 563.59 149.358C567.476 151.775 570.787 155.905 573.222 162.346ZM573.222 162.346L574.625 161.816L573.222 162.346C573.222 162.346 573.222 162.346 573.222 162.346Z" stroke="white" stroke-width="3"/>

</svg>
