<svg width="1392" height="868" viewBox="0 0 1392 868" fill="none" xmlns="http://www.w3.org/2000/svg">
<path d="M814.058 561.598C814.058 561.598 868.594 617.456 918.17 566.678C967.746 515.901 968.981 486.701 926.846 442.27C884.71 397.839 747.13 462.583 814.058 561.598V561.598Z" fill="#EBE6E3"/>
<path d="M512.429 660.084C512.429 660.084 640.05 756.404 666.921 723.726C693.792 691.047 591.355 589.571 559.449 562.049C527.544 534.527 455.338 503.576 436.862 527.656C418.387 551.736 443.583 615.378 512.429 660.096L512.429 660.084Z" fill="#EBE6E3"/>
<path d="M194.707 364.078C194.707 364.078 201.292 482.404 253.198 489.523C305.104 496.641 348.527 466.258 358.913 422.917C369.305 379.557 331.353 336.004 290.502 320.62C249.645 305.255 191.586 336.971 194.701 364.097L194.707 364.078Z" fill="#EBE6E3"/>
<path d="M151.267 407.796L152.333 407.404L152.051 407.454L152.3 407.346C149.282 400.425 150.152 391.784 154.221 382.572C158.281 373.381 165.45 363.813 174.677 355.223C193.159 338.016 219.573 325.019 245.024 326.636C270.726 328.281 298.059 338.115 319.343 354.081C340.624 370.044 355.73 392.03 357.315 417.966C360.503 470.104 322.139 519.17 261.119 528.988C246.287 531.374 232.098 525.235 219.025 514.357C205.955 503.48 194.179 488.002 184.27 472.125C174.37 456.261 166.383 440.076 160.869 427.849C158.112 421.738 155.976 416.621 154.53 413.034C153.807 411.241 153.257 409.83 152.887 408.869C152.703 408.389 152.564 408.021 152.471 407.774C152.424 407.651 152.39 407.557 152.367 407.495L152.341 407.426L152.335 407.409L152.333 407.405C152.333 407.404 152.333 407.404 151.267 407.796L151.267 407.796Z" stroke="black" stroke-width="3"/>
<path d="M359.799 304.453C359.799 304.453 371.446 353.752 426.608 356.643C481.756 359.537 573.922 315.693 581.743 267.411C589.558 219.139 489.795 250.085 463.326 246.723C436.858 243.362 343.362 248.981 359.805 304.444L359.799 304.453Z" fill="#EBE6E3"/>
<path d="M440.485 660.009L441.332 658.887L438.929 657.073L438.929 657.315C405.961 635.383 383.413 609.151 371.234 585.451C365.002 573.323 361.508 561.904 360.689 552.095C359.868 542.276 361.734 534.198 366.053 528.569C370.26 523.085 377.666 520.554 387.333 520.501C396.97 520.448 408.549 522.867 420.643 526.924C444.831 535.038 470.682 549.566 486.47 563.185C502.37 576.901 535.886 609.084 562.054 641.889C575.145 658.301 586.331 674.788 592.576 689.146C598.876 703.632 599.887 715.325 593.762 722.773C590.735 726.454 586.235 728.407 580.446 728.878C574.634 729.352 567.638 728.317 559.852 726.124C544.285 721.739 525.938 712.834 508.338 702.854C490.757 692.886 474.003 681.893 461.639 673.388C455.459 669.136 450.379 665.509 446.846 662.945C445.079 661.663 443.699 660.647 442.761 659.953C442.293 659.605 441.934 659.338 441.694 659.158C441.574 659.068 441.483 659 441.422 658.955L441.354 658.903L441.337 658.891L441.333 658.888C441.332 658.887 441.332 658.887 440.485 660.009Z" stroke="black" stroke-width="3"/>
<path d="M459.68 452.558C459.68 452.558 480.519 514.96 544.33 506.361C608.141 497.763 604.78 441.005 599.746 418.64C594.711 396.274 574.561 360.166 515.785 372.206C457.009 384.246 452.271 438.305 459.68 452.558V452.558Z" fill="#EBE6E3"/>
<path d="M842.62 314.457C842.62 314.457 963.628 247.261 935.991 187.972C908.355 128.683 777.719 210.519 771.251 213.988C745.257 227.909 676.966 310.275 757.16 326.827C806.904 337.095 842.611 314.463 842.611 314.463L842.62 314.457Z" fill="#EBE6E3"/>
<path d="M528.361 448.16C528.361 448.16 528.361 448.161 526.939 448.637L528.268 447.944C527.1 445.703 526.313 441.641 526.539 436.542C526.763 431.489 527.976 425.574 530.642 419.704C535.951 408.017 547.048 396.436 567.814 392.197C588.719 387.929 602.517 392.225 611.52 399.338C620.579 406.495 625.001 416.676 626.773 424.522C628.564 432.45 630.025 446.381 625.458 459.014C623.184 465.303 619.422 471.256 613.465 476.016C607.507 480.777 599.274 484.408 587.959 485.927C565.481 488.945 550.638 479.534 541.352 469.339C536.694 464.226 533.438 458.915 531.346 454.878C530.302 452.861 529.551 451.169 529.063 449.986C528.819 449.395 528.641 448.931 528.525 448.619C528.467 448.463 528.425 448.345 528.398 448.268C528.384 448.229 528.374 448.2 528.368 448.183L528.362 448.164L528.361 448.16L528.361 448.16Z" stroke="black" stroke-width="3"/>
<path d="M722.739 608.163C722.697 608.121 722.661 608.085 722.632 608.056C700.213 574.837 695.018 544.652 700.527 519.002C706.049 493.291 722.371 471.922 743.35 456.499C764.334 441.072 789.887 431.662 813.686 429.83C837.507 427.996 859.343 433.759 873.197 448.367C901.675 478.396 915.145 502.933 913.509 528.294C911.868 553.728 895.014 580.477 861.457 614.847C844.869 631.837 827.943 639.837 811.918 642.362C795.871 644.89 780.609 641.946 767.347 636.852C754.083 631.758 742.871 624.531 734.966 618.565C731.017 615.584 727.901 612.925 725.776 611.014C724.714 610.059 723.9 609.291 723.354 608.765C723.081 608.502 722.875 608.299 722.739 608.163Z" stroke="black" stroke-width="3"/>
<path d="M803.651 335.779L803.586 335.773L803.534 335.773L803.527 335.773C803.507 335.772 803.475 335.771 803.432 335.769C803.346 335.765 803.215 335.759 803.04 335.75C802.689 335.73 802.164 335.696 801.478 335.637C800.106 335.52 798.09 335.307 795.54 334.921C790.438 334.15 783.202 332.692 774.705 329.946C757.711 324.453 735.691 313.813 715.587 293.222C699.401 276.644 694.808 262.386 697.022 250.445C699.249 238.43 708.453 228.249 721.007 220.066C733.53 211.904 749.162 205.884 763.777 202.121C778.418 198.352 791.865 196.892 800.007 197.727L800.008 197.727C800.553 197.782 801.761 197.858 803.546 197.97C815.892 198.742 855.794 201.238 893.826 210.696C915.596 216.109 936.576 223.766 951.352 234.573C966.076 245.342 974.469 259.083 971.647 276.838C968.804 294.726 957.137 307.398 940.942 316.367C924.72 325.349 904.093 330.529 883.706 333.421C863.339 336.31 843.32 336.9 828.382 336.767C820.916 336.7 814.727 336.452 810.406 336.222C808.246 336.106 806.554 335.995 805.403 335.913C804.828 335.872 804.388 335.838 804.093 335.815C803.945 335.803 803.834 335.794 803.76 335.788L803.677 335.781L803.657 335.779L803.652 335.779C803.651 335.779 803.651 335.779 803.521 337.273L803.651 335.779Z" stroke="black" stroke-width="3"/>
<path d="M573.222 162.346C578.111 175.286 577.746 191.073 573.433 208.052C569.124 225.016 560.905 243.043 550.257 260.365C528.94 295.043 498.057 326.626 469.83 341.081L469.83 341.081C441.735 355.472 417.851 352.078 400.971 345.12C392.513 341.634 385.805 337.247 381.212 333.733C378.918 331.976 377.155 330.441 375.972 329.349C375.38 328.804 374.933 328.37 374.637 328.075C374.628 328.066 374.62 328.058 374.612 328.05L374.612 328.007L374.147 327.564C362.311 316.277 359.043 304.301 361.054 292.462C363.084 280.506 370.534 268.507 380.527 257.42C400.508 235.249 430.123 217.307 444.226 211.358C447.946 209.789 452.46 206.999 457.497 203.495C462.551 199.978 468.211 195.686 474.231 191.064C475.446 190.132 476.675 189.186 477.917 188.231C489.018 179.69 501.165 170.345 513.095 162.648C526.406 154.06 539.211 147.685 549.818 146.648C555.078 146.134 559.705 146.941 563.59 149.358C567.476 151.775 570.787 155.905 573.222 162.346ZM573.222 162.346L574.625 161.816L573.222 162.346C573.222 162.346 573.222 162.346 573.222 162.346Z" stroke="black" stroke-width="3"/>
<rect y="143" width="1392" height="2" fill="black"/>
<rect y="143" width="1392" height="2" fill="black"/>
<rect x="660" y="427" width="732" height="2" fill="black"/>
<rect x="660" y="427" width="732" height="2" fill="black"/>
<rect x="331" y="427" width="56" height="2" fill="black"/>
<rect x="331" y="427" width="56" height="2" fill="black"/>
<rect y="731" width="1392" height="2" fill="black"/>
<rect y="731" width="1392" height="2" fill="black"/>
<rect x="697" y="85" width="708" height="1.99997" transform="rotate(90 697 85)" fill="black"/>
<rect x="697" y="85" width="708" height="1.99997" transform="rotate(90 697 85)" fill="black"/>
<rect x="360" y="85" width="708" height="1.99997" transform="rotate(90 360 85)" fill="black"/>
<rect x="360" y="85" width="708" height="1.99997" transform="rotate(90 360 85)" fill="black"/>
<path d="M16.636 126.967V128.717H17.7718V129.978H16.636V132.99H15.1771V125.695H17.8343V126.967H16.636ZM19.5565 125.706V133H18.0977V125.706H19.5565ZM23.7541 125.706V133H22.1389L21.1282 128.238H21.0448L21.3678 133H19.909V125.706H21.5137L22.5557 130.499H22.6391L22.2952 125.706H23.7541ZM25.5705 126.967V128.54H26.748V129.811H25.5705V131.729H26.8001V133H24.1117V125.695H26.7688V126.967H25.5705ZM28.9796 125.706L29.4068 130.499H29.511L29.9278 125.706H31.8139V133H30.4801L30.6364 128.238H30.5426L29.9382 133H28.9691L28.3648 128.238H28.271L28.4273 133H27.0831V125.706H28.9796ZM35.151 125.695L35.9325 132.99H34.4737L34.307 131.187H33.6713L33.515 132.99H32.0562L32.869 125.695H35.151ZM34.1924 129.916L34.0465 128.175H33.9423L33.786 129.916H34.1924ZM37.9628 125.706C38.581 125.706 39.0534 125.911 39.3799 126.321C39.7064 126.73 39.8697 127.37 39.8697 128.238V128.259C39.8697 128.703 39.828 129.079 39.7446 129.384C39.6682 129.69 39.5501 129.936 39.3903 130.124C39.2375 130.312 39.0395 130.447 38.7964 130.53C38.5602 130.614 38.2789 130.655 37.9524 130.655H37.6189V133H36.1601V125.706H37.9628ZM37.6189 129.395H37.9524C38.1191 129.395 38.2372 129.349 38.3066 129.259C38.3761 129.162 38.4108 129.006 38.4108 128.79V127.613C38.4108 127.383 38.3761 127.22 38.3066 127.123C38.2372 127.026 38.1191 126.977 37.9524 126.977H37.6189V129.395ZM42.8561 130.635H42.0016V129.728H42.9082L42.9498 128.978H42.0016V128.071H43.0019L43.1374 125.706H44.1273L43.9919 128.071H44.4816L44.6171 125.706H45.607L45.4715 128.071H46.326V128.978H45.4194L45.3778 129.728H46.326V130.635H45.3256L45.1902 133H44.2003L44.3357 130.635H43.846L43.7105 133H42.7206L42.8561 130.635ZM44.3878 129.728L44.4295 128.978H43.9398L43.8981 129.728H44.3878ZM46.692 127.498C46.692 126.852 46.8587 126.376 47.1922 126.071C47.5326 125.758 47.9876 125.602 48.5572 125.602C49.1408 125.602 49.6027 125.761 49.9431 126.081C50.2905 126.394 50.4641 126.866 50.4641 127.498V131.197C50.4641 131.836 50.2905 132.316 49.9431 132.635C49.6027 132.948 49.1408 133.104 48.5572 133.104C47.9876 133.104 47.5326 132.948 47.1922 132.635C46.8587 132.323 46.692 131.843 46.692 131.197V127.498ZM48.1508 131.302C48.1508 131.503 48.1925 131.645 48.2759 131.729C48.3662 131.805 48.4669 131.843 48.5781 131.843C48.6962 131.843 48.7969 131.805 48.8803 131.729C48.9636 131.645 49.0053 131.503 49.0053 131.302V127.404C49.0053 127.203 48.9636 127.064 48.8803 126.988C48.7969 126.911 48.6962 126.873 48.5781 126.873C48.4669 126.873 48.3662 126.911 48.2759 126.988C48.1925 127.064 48.1508 127.203 48.1508 127.404V131.302ZM50.7929 127.498C50.7929 126.852 50.9597 126.376 51.2931 126.071C51.6335 125.758 52.0885 125.602 52.6582 125.602C53.2417 125.602 53.7037 125.761 54.044 126.081C54.3914 126.394 54.5651 126.866 54.5651 127.498V131.197C54.5651 131.836 54.3914 132.316 54.044 132.635C53.7037 132.948 53.2417 133.104 52.6582 133.104C52.0885 133.104 51.6335 132.948 51.2931 132.635C50.9597 132.323 50.7929 131.843 50.7929 131.197V127.498ZM52.2518 131.302C52.2518 131.503 52.2934 131.645 52.3768 131.729C52.4671 131.805 52.5678 131.843 52.679 131.843C52.7971 131.843 52.8978 131.805 52.9812 131.729C53.0645 131.645 53.1062 131.503 53.1062 131.302V127.404C53.1062 127.203 53.0645 127.064 52.9812 126.988C52.8978 126.911 52.7971 126.873 52.679 126.873C52.5678 126.873 52.4671 126.911 52.3768 126.988C52.2934 127.064 52.2518 127.203 52.2518 127.404V131.302ZM55.3652 133V127.05L55.3131 126.967H54.8129V125.706H56.8241V133H55.3652Z" fill="#272A23"/>
</svg>
