<svg width="1392" height="868" viewBox="0 0 1392 868" fill="none" xmlns="http://www.w3.org/2000/svg">
<path d="M16.636 126.967V128.717H17.7718V129.978H16.636V132.99H15.1771V125.695H17.8343V126.967H16.636ZM19.5565 125.706V133H18.0977V125.706H19.5565ZM23.7541 125.706V133H22.1389L21.1282 128.238H21.0448L21.3678 133H19.909V125.706H21.5137L22.5557 130.499H22.6391L22.2952 125.706H23.7541ZM25.5705 126.967V128.54H26.748V129.811H25.5705V131.729H26.8001V133H24.1117V125.695H26.7688V126.967H25.5705ZM28.9796 125.706L29.4068 130.499H29.511L29.9278 125.706H31.8139V133H30.4801L30.6364 128.238H30.5426L29.9382 133H28.9691L28.3648 128.238H28.271L28.4273 133H27.0831V125.706H28.9796ZM35.151 125.695L35.9325 132.99H34.4737L34.307 131.187H33.6713L33.515 132.99H32.0562L32.869 125.695H35.151ZM34.1924 129.916L34.0465 128.175H33.9423L33.786 129.916H34.1924ZM37.9628 125.706C38.581 125.706 39.0534 125.911 39.3799 126.321C39.7064 126.73 39.8697 127.37 39.8697 128.238V128.259C39.8697 128.703 39.828 129.079 39.7446 129.384C39.6682 129.69 39.5501 129.936 39.3903 130.124C39.2375 130.312 39.0395 130.447 38.7964 130.53C38.5602 130.614 38.2789 130.655 37.9524 130.655H37.6189V133H36.1601V125.706H37.9628ZM37.6189 129.395H37.9524C38.1191 129.395 38.2372 129.349 38.3066 129.259C38.3761 129.162 38.4108 129.006 38.4108 128.79V127.613C38.4108 127.383 38.3761 127.22 38.3066 127.123C38.2372 127.026 38.1191 126.977 37.9524 126.977H37.6189V129.395ZM42.8561 130.635H42.0016V129.728H42.9082L42.9498 128.978H42.0016V128.071H43.0019L43.1374 125.706H44.1273L43.9919 128.071H44.4816L44.6171 125.706H45.607L45.4715 128.071H46.326V128.978H45.4194L45.3778 129.728H46.326V130.635H45.3256L45.1902 133H44.2003L44.3357 130.635H43.846L43.7105 133H42.7206L42.8561 130.635ZM44.3878 129.728L44.4295 128.978H43.9398L43.8981 129.728H44.3878ZM46.692 127.498C46.692 126.852 46.8587 126.376 47.1922 126.071C47.5326 125.758 47.9876 125.602 48.5572 125.602C49.1408 125.602 49.6027 125.761 49.9431 126.081C50.2905 126.394 50.4641 126.866 50.4641 127.498V131.197C50.4641 131.836 50.2905 132.316 49.9431 132.635C49.6027 132.948 49.1408 133.104 48.5572 133.104C47.9876 133.104 47.5326 132.948 47.1922 132.635C46.8587 132.323 46.692 131.843 46.692 131.197V127.498ZM48.1508 131.302C48.1508 131.503 48.1925 131.645 48.2759 131.729C48.3662 131.805 48.4669 131.843 48.5781 131.843C48.6962 131.843 48.7969 131.805 48.8803 131.729C48.9636 131.645 49.0053 131.503 49.0053 131.302V127.404C49.0053 127.203 48.9636 127.064 48.8803 126.988C48.7969 126.911 48.6962 126.873 48.5781 126.873C48.4669 126.873 48.3662 126.911 48.2759 126.988C48.1925 127.064 48.1508 127.203 48.1508 127.404V131.302ZM50.7929 127.498C50.7929 126.852 50.9597 126.376 51.2931 126.071C51.6335 125.758 52.0885 125.602 52.6582 125.602C53.2417 125.602 53.7037 125.761 54.044 126.081C54.3914 126.394 54.5651 126.866 54.5651 127.498V131.197C54.5651 131.836 54.3914 132.316 54.044 132.635C53.7037 132.948 53.2417 133.104 52.6582 133.104C52.0885 133.104 51.6335 132.948 51.2931 132.635C50.9597 132.323 50.7929 131.843 50.7929 131.197V127.498ZM52.2518 131.302C52.2518 131.503 52.2934 131.645 52.3768 131.729C52.4671 131.805 52.5678 131.843 52.679 131.843C52.7971 131.843 52.8978 131.805 52.9812 131.729C53.0645 131.645 53.1062 131.503 53.1062 131.302V127.404C53.1062 127.203 53.0645 127.064 52.9812 126.988C52.8978 126.911 52.7971 126.873 52.679 126.873C52.5678 126.873 52.4671 126.911 52.3768 126.988C52.2934 127.064 52.2518 127.203 52.2518 127.404V131.302ZM55.3652 133V127.05L55.3131 126.967H54.8129V125.706H56.8241V133H55.3652Z" fill="#272A23"/>
<rect x="116.196" y="161.812" width="1.8035" height="1.8035" fill="#C8FF88"/>
<path d="M155.267 407.796L156.333 407.404L156.051 407.454L156.3 407.346C153.282 400.425 154.152 391.784 158.221 382.572C162.281 373.381 169.45 363.813 178.677 355.223C197.159 338.016 223.573 325.019 249.024 326.636C274.726 328.281 302.059 338.115 323.343 354.081C344.624 370.044 359.73 392.03 361.315 417.966C364.503 470.104 326.139 519.17 265.119 528.988C250.287 531.374 236.098 525.235 223.025 514.357C209.955 503.48 198.179 488.002 188.27 472.125C178.37 456.261 170.383 440.076 164.869 427.849C162.112 421.738 159.976 416.621 158.53 413.034C157.807 411.241 157.257 409.83 156.887 408.869C156.703 408.389 156.564 408.021 156.471 407.774C156.424 407.651 156.39 407.557 156.367 407.495L156.341 407.426L156.335 407.409L156.333 407.405C156.333 407.404 156.333 407.404 155.267 407.796L155.267 407.796Z" stroke="black" stroke-width="3"/>
<path d="M155.267 407.796L156.333 407.404L156.051 407.454L156.3 407.346C153.282 400.425 154.152 391.784 158.221 382.572C162.281 373.381 169.45 363.813 178.677 355.223C197.159 338.016 223.573 325.019 249.024 326.636C274.726 328.281 302.059 338.115 323.343 354.081C344.624 370.044 359.73 392.03 361.315 417.966C364.503 470.104 326.139 519.17 265.119 528.988C250.287 531.374 236.098 525.235 223.025 514.357C209.955 503.48 198.179 488.002 188.27 472.125C178.37 456.261 170.383 440.076 164.869 427.849C162.112 421.738 159.976 416.621 158.53 413.034C157.807 411.241 157.257 409.83 156.887 408.869C156.703 408.389 156.564 408.021 156.471 407.774C156.424 407.651 156.39 407.557 156.367 407.495L156.341 407.426L156.335 407.409L156.333 407.405C156.333 407.404 156.333 407.404 155.267 407.796L155.267 407.796Z" stroke="black" stroke-width="3"/>
<path d="M444.485 660.009L445.332 658.887L442.929 657.073L442.929 657.315C409.961 635.383 387.413 609.151 375.234 585.451C369.002 573.323 365.508 561.904 364.689 552.095C363.868 542.276 365.734 534.198 370.053 528.569C374.26 523.085 381.666 520.554 391.333 520.501C400.97 520.448 412.549 522.867 424.643 526.924C448.831 535.038 474.682 549.566 490.47 563.185C506.37 576.901 539.886 609.084 566.054 641.889C579.145 658.301 590.331 674.788 596.576 689.146C602.876 703.632 603.887 715.325 597.762 722.773C594.735 726.454 590.235 728.407 584.446 728.878C578.634 729.352 571.638 728.317 563.852 726.124C548.285 721.739 529.938 712.834 512.338 702.854C494.757 692.886 478.003 681.893 465.639 673.388C459.459 669.136 454.379 665.509 450.846 662.945C449.079 661.663 447.699 660.647 446.761 659.953C446.293 659.605 445.934 659.338 445.694 659.158C445.574 659.068 445.483 659 445.422 658.955L445.354 658.903L445.337 658.891L445.333 658.888C445.332 658.887 445.332 658.887 444.485 660.009Z" stroke="black" stroke-width="3"/>
<path d="M465.103 452.083C465.103 452.083 465.103 452.084 463.68 452.559L465.011 451.867C463.329 448.63 462.239 442.877 462.554 435.75C462.867 428.668 464.561 420.387 468.28 412.171C475.695 395.79 491.187 379.596 520.086 373.676C549.124 367.728 568.382 373.704 580.987 383.697C593.648 393.735 599.813 407.999 602.283 418.969C604.77 430.021 606.813 449.477 600.444 467.155C597.269 475.967 592.011 484.322 583.679 491.003C575.346 497.684 563.859 502.756 548.13 504.875C516.824 509.094 496.124 495.927 483.187 481.676C476.704 474.535 472.175 467.12 469.266 461.487C467.813 458.672 466.768 456.308 466.088 454.653C465.748 453.826 465.499 453.176 465.337 452.737C465.256 452.518 465.196 452.351 465.157 452.24C465.138 452.185 465.124 452.144 465.115 452.118L465.105 452.09L465.103 452.084L465.103 452.083Z" stroke="black" stroke-width="3"/>
<path d="M726.739 608.163C726.697 608.121 726.661 608.085 726.632 608.056C704.213 574.837 699.018 544.652 704.527 519.002C710.049 493.291 726.371 471.922 747.35 456.499C768.334 441.072 793.887 431.662 817.686 429.83C841.507 427.996 863.343 433.759 877.197 448.367C905.675 478.396 919.145 502.933 917.509 528.294C915.868 553.728 899.014 580.477 865.457 614.847C848.869 631.837 831.943 639.837 815.918 642.362C799.871 644.89 784.609 641.946 771.347 636.852C758.083 631.758 746.871 624.531 738.966 618.565C735.017 615.584 731.901 612.925 729.776 611.014C728.714 610.059 727.9 609.291 727.354 608.765C727.081 608.502 726.875 608.299 726.739 608.163Z" stroke="black" stroke-width="3"/>
<path d="M807.651 335.779L807.586 335.774L807.534 335.774L807.527 335.773C807.507 335.773 807.475 335.771 807.432 335.77C807.346 335.766 807.215 335.76 807.04 335.75C806.689 335.73 806.164 335.696 805.478 335.638C804.106 335.521 802.09 335.307 799.54 334.922C794.438 334.151 787.202 332.693 778.705 329.946C761.711 324.453 739.691 313.813 719.587 293.222C703.401 276.644 698.808 262.387 701.022 250.446C703.249 238.431 712.453 228.249 725.007 220.067C737.53 211.904 753.162 205.884 767.777 202.122C782.418 198.353 795.865 196.893 804.007 197.727L804.008 197.727C804.553 197.783 805.761 197.858 807.546 197.97C819.892 198.742 859.794 201.239 897.826 210.696C919.596 216.11 940.576 223.767 955.352 234.573C970.076 245.342 978.469 259.084 975.647 276.838C972.804 294.727 961.137 307.399 944.942 316.367C928.72 325.35 908.093 330.53 887.706 333.421C867.339 336.31 847.32 336.901 832.382 336.767C824.916 336.701 818.727 336.453 814.406 336.222C812.246 336.107 810.554 335.996 809.403 335.914C808.828 335.873 808.388 335.839 808.093 335.815C807.945 335.804 807.834 335.795 807.76 335.788L807.677 335.781L807.657 335.78L807.652 335.779C807.651 335.779 807.651 335.779 807.521 337.274L807.651 335.779Z" stroke="black" stroke-width="3"/>
<path d="M577.222 162.346C582.111 175.286 581.746 191.073 577.433 208.052C573.124 225.016 564.905 243.043 554.257 260.365C532.94 295.043 502.057 326.626 473.83 341.081L473.83 341.081C445.735 355.472 421.851 352.078 404.971 345.12C396.513 341.634 389.805 337.247 385.212 333.733C382.918 331.976 381.155 330.441 379.972 329.349C379.38 328.804 378.933 328.37 378.637 328.075C378.628 328.066 378.62 328.058 378.612 328.05L378.612 328.007L378.147 327.564C366.311 316.277 363.043 304.301 365.054 292.462C367.084 280.506 374.534 268.507 384.527 257.42C404.508 235.249 434.123 217.307 448.226 211.358C451.946 209.789 456.46 206.999 461.497 203.495C466.551 199.978 472.211 195.686 478.231 191.064C479.446 190.132 480.675 189.186 481.917 188.231C493.018 179.69 505.165 170.345 517.095 162.648C530.406 154.06 543.211 147.685 553.818 146.648C559.078 146.134 563.705 146.941 567.59 149.358C571.476 151.775 574.787 155.905 577.222 162.346ZM577.222 162.346L578.625 161.816L577.222 162.346C577.222 162.346 577.222 162.346 577.222 162.346Z" stroke="black" stroke-width="3"/>
<rect y="143" width="1392" height="2" fill="black"/>
<rect y="143" width="1392" height="2" fill="black"/>
<rect x="660" y="427" width="732" height="2" fill="black"/>
<rect x="660" y="427" width="732" height="2" fill="black"/>
<rect x="331" y="427" width="56" height="2" fill="black"/>
<rect x="331" y="427" width="56" height="2" fill="black"/>
<rect y="731" width="1392" height="2" fill="black"/>
<rect y="731" width="1392" height="2" fill="black"/>
<rect x="697" y="85" width="708" height="1.99997" transform="rotate(90 697 85)" fill="black"/>
<rect x="697" y="85" width="708" height="1.99997" transform="rotate(90 697 85)" fill="black"/>
<rect x="360" y="85" width="708" height="1.99997" transform="rotate(90 360 85)" fill="black"/>
<rect x="360" y="85" width="708" height="1.99997" transform="rotate(90 360 85)" fill="black"/>
</svg>
