<svg width="248" height="94" viewBox="0 0 248 94" fill="none" xmlns="http://www.w3.org/2000/svg" >
<path d="M0.0585938 2.14158H66.7025V20.3172H21.2635V37.9879H58.6244V55.1538H21.2635V91.0001H0.0585938V2.14158Z" fill="#2E3333"/>
<path d="M74.7549 0.12207H94.95V16.2782H74.7549V0.12207ZM74.7549 24.3562H94.95V91.0001H74.7549V24.3562Z" fill="#2E3333"/>
<path d="M148.725 22.3367C156.13 22.3367 161.979 24.7349 166.27 29.5312C170.561 34.3276 172.707 41.3538 172.707 50.6099V91.0001H152.512V58.6879C152.512 51.4513 151.671 46.4446 149.988 43.6678C148.389 40.891 145.696 39.5026 141.91 39.5026C139.133 39.5026 136.524 40.5965 134.084 42.7843C131.728 44.9721 129.835 48.0434 128.404 51.9983C126.974 55.9532 126.258 60.4129 126.258 65.3776V91.0001H106.063V24.3562H126.258V27.5117C126.258 30.1202 125.711 32.5184 124.618 34.7062C123.692 36.5574 123.229 37.8617 123.229 38.619C123.229 39.2922 123.482 39.7129 123.986 39.8812C124.155 39.9654 124.365 40.0074 124.618 40.0074C125.375 40.0074 126.048 39.3343 126.637 37.9879C128.572 33.8648 131.433 30.2465 135.22 27.133C139.007 23.9355 143.508 22.3367 148.725 22.3367Z" fill="#2E3333"/>
<path d="M247.479 55.6587C247.479 58.4355 247.353 60.7916 247.101 62.7269H198.759C199.432 67.0184 201.157 70.4684 203.934 73.077C206.71 75.6013 210.161 76.8635 214.284 76.8635C217.313 76.8635 219.837 76.1483 221.857 74.7178C223.876 73.2873 225.307 71.3099 226.148 68.7855H246.217C244.787 75.6855 241.337 81.4495 235.867 86.0776C230.398 90.7056 223.245 93.0196 214.41 93.0196C206.921 93.0196 200.484 91.4629 195.098 88.3495C189.713 85.2361 185.632 81.0288 182.855 75.7276C180.162 70.3422 178.816 64.3257 178.816 57.6782C178.816 50.7782 180.204 44.6776 182.981 39.3763C185.758 33.991 189.797 29.8257 195.098 26.8806C200.4 23.8513 206.711 22.3367 214.031 22.3367C219.921 22.3367 225.391 23.5568 230.44 25.9971C235.573 28.4373 239.696 32.1818 242.809 37.2306C245.923 42.1952 247.479 48.3379 247.479 55.6587ZM214.41 37.9879C206.079 37.9879 201.031 42.1952 199.264 50.6099H227.663C227.326 46.5708 225.98 43.4574 223.624 41.2696C221.268 39.0818 218.196 37.9879 214.41 37.9879Z" fill="#2E3333"/>
</svg>
