<svg width="356" height="93" viewBox="0 0 356 93" fill="none" xmlns="http://www.w3.org/2000/svg">
<path d="M76.7415 2.01952V20.1951H48.9732V90.8781H27.7683V20.1951H0V2.01952H76.7415Z" fill="#2E3333"/>
<path d="M100.698 92.8976C93.2927 92.8976 87.4445 90.4994 83.153 85.7031C78.8616 80.9067 76.7159 73.8805 76.7159 64.6244V24.2341H96.9109V56.5463C96.9109 63.7829 97.7104 68.7896 99.3091 71.5665C100.992 74.3433 103.727 75.7317 107.513 75.7317C110.29 75.7317 112.857 74.6378 115.213 72.45C117.653 70.2622 119.588 67.1909 121.019 63.236C122.449 59.2811 123.165 54.8213 123.165 49.8567V24.2341H143.36V90.8781H123.165V87.7226C123.165 85.114 123.712 82.7159 124.805 80.528C125.731 78.6768 126.194 77.3726 126.194 76.6152C126.194 75.9421 125.941 75.5214 125.437 75.3531C125.268 75.2689 125.058 75.2268 124.805 75.2268C124.048 75.2268 123.375 75.9 122.786 77.2463C120.682 81.3695 117.737 85.0299 113.951 88.2274C110.248 91.3409 105.83 92.8976 100.698 92.8976Z" fill="#2E3333"/>
<path d="M173.348 38.4969C174.021 38.4969 174.652 37.9079 175.241 36.7299C176.672 33.4482 178.186 30.8817 179.785 29.0305C181.468 27.0951 183.782 25.6646 186.727 24.739C189.756 23.7293 193.837 23.2244 198.97 23.2244V42.6622C198.045 42.5781 196.698 42.536 194.931 42.536C187.526 42.536 182.309 44.3031 179.28 47.8372C176.251 51.3713 174.736 57.0933 174.736 65.0031V90.8781H154.541V24.2341H174.736V27.2634C174.736 29.2829 174.147 31.4707 172.969 33.8268C172.296 35.3415 171.959 36.3933 171.959 36.9823C171.959 37.9079 172.338 38.4128 173.095 38.4969H173.348Z" fill="#2E3333"/>
<path d="M233.304 40.3902V68.1585C233.304 70.4305 233.388 71.9872 233.556 72.8287C233.809 73.6701 234.314 74.2171 235.071 74.4695C235.828 74.6378 237.259 74.722 239.362 74.722H251.48V90.8781H232.799C228.171 90.8781 224.427 90.289 221.566 89.111C218.705 87.8488 216.559 85.7451 215.128 82.8C213.782 79.8549 213.109 75.7317 213.109 70.4305V40.3902H200.992V24.2341H213.109V6.05853H233.304V24.2341H251.48V40.3902H233.304Z" fill="#2E3333"/>
<path d="M280.741 0V90.8781H260.546V0H280.741Z" fill="#2E3333"/>
<path d="M355.492 55.5366C355.492 58.3134 355.366 60.6695 355.114 62.6049H306.772C307.445 66.8964 309.17 70.3464 311.947 72.9549C314.723 75.4793 318.173 76.7415 322.297 76.7415C325.326 76.7415 327.85 76.0262 329.87 74.5957C331.889 73.1652 333.32 71.1878 334.161 68.6634H354.23C352.8 75.5634 349.35 81.3275 343.88 85.9555C338.411 90.5836 331.258 92.8976 322.423 92.8976C314.934 92.8976 308.497 91.3409 303.111 88.2274C297.726 85.114 293.645 80.9067 290.868 75.6055C288.175 70.2201 286.829 64.2037 286.829 57.5561C286.829 50.6561 288.217 44.5555 290.994 39.2543C293.771 33.8689 297.81 29.7037 303.111 26.7585C308.412 23.7293 314.723 22.2146 322.044 22.2146C327.934 22.2146 333.404 23.4348 338.453 25.875C343.586 28.3152 347.709 32.0598 350.822 37.1085C353.936 42.0732 355.492 48.2159 355.492 55.5366ZM322.423 37.8659C314.092 37.8659 309.044 42.0732 307.276 50.4878H335.676C335.339 46.4488 333.993 43.3354 331.637 41.1476C329.281 38.9598 326.209 37.8659 322.423 37.8659Z" fill="#2E3333"/>
</svg>
