<svg width="30" height="30" viewBox="0 0 30 30" fill="none" xmlns="http://www.w3.org/2000/svg">
<g clip-path="url(#clip0_15_244)">
<path d="M15.8885 30C13.3366 30 10.673 29.2547 8.05348 27.7925C5.2507 26.2281 3.06203 24.1638 2.03936 22.8711C-0.0900486 20.1814 -0.593607 15.1882 0.724977 9.84077C2.17765 3.9496 10.7314 0.691919 11.095 0.55608L11.1572 0.53515C11.232 0.512989 12.9949 0 15.4425 0C15.4736 0 15.5047 0 15.5358 0C18.8678 0.0176468 21.8652 0.997661 24.2039 2.83334C29.0928 6.67091 30.8217 11.5209 29.6443 18.0974C29.079 21.257 28.1202 23.5569 26.6267 25.3351C24.8126 27.4958 22.1737 28.9289 18.5601 29.7156C17.6884 29.9056 16.7951 29.9996 15.8881 29.9996L15.8885 30ZM11.7209 2.24894C11.1576 2.46809 3.70135 5.45697 2.51644 10.2618C1.09109 16.0418 2.15411 20.0743 3.49707 21.7712C4.23728 22.7065 6.22251 24.6982 8.96771 26.2306C12.158 28.0117 15.25 28.5936 18.1587 27.9599C24.9374 26.4838 26.9268 22.826 27.8285 17.788C28.8923 11.8451 27.4182 7.66528 23.0484 4.23565C21.0229 2.64579 18.5109 1.82624 15.5829 1.79998C13.5216 1.78151 11.9575 2.18451 11.7205 2.24894H11.7209Z" fill="black"/>
<path d="M15.5309 3.52524C15.5309 3.52524 13.1531 4.39568 13.3313 5.4984C13.5095 6.60112 14.4015 7.29756 15.3523 7.23969C16.3035 7.18183 16.9571 6.13697 17.0168 5.20826C17.0761 4.27954 16.0656 3.29296 15.5305 3.52524H15.5309Z" fill="black"/>
<path d="M5.72237 11.0125C5.72237 11.0125 2.39333 15.4234 3.52277 16.3521C4.6522 17.2808 8.15946 13.7403 9.11067 12.6376C10.0619 11.5349 11.1316 9.03931 10.2994 8.40074C9.46712 7.76217 7.26751 8.63302 5.72195 11.0125H5.72237Z" fill="black"/>
<path d="M14.3586 9.94384C14.3586 9.94384 12.2019 10.6641 12.4991 12.8695C12.7962 15.075 14.7579 14.9588 15.5309 14.7848C16.3039 14.6108 17.5519 13.9144 17.1358 11.8829C16.7196 9.8515 14.8512 9.68775 14.3586 9.94384V9.94384Z" fill="black"/>
<path d="M9.22967 17.8032C9.22967 17.8032 6.61393 20.357 8.99176 22.6786C11.3696 25.0002 12.7369 25.0581 14.8176 23.0849C16.8982 21.1117 13.8664 14.669 9.22967 17.8032V17.8032Z" fill="black"/>
<path d="M18.3841 19.196C18.3841 19.196 17.9087 24.6518 20.4647 25.0581C23.0208 25.4643 23.2292 19.3688 23.2587 19.0799C23.3776 17.9193 22.1885 13.8564 19.8704 16.1197C18.4324 17.5237 18.3841 19.1956 18.3841 19.1956V19.196Z" fill="black"/>
<path d="M20.2268 7.3559C20.2268 7.3559 18.7405 8.74876 19.7514 10.7223C20.7619 12.6955 24.1502 15.0171 25.9934 14.3206C27.8361 13.6242 24.745 10.7802 24.3289 9.79362C23.9127 8.80704 21.8321 5.67288 20.2272 7.3559H20.2268Z" fill="black"/>
</g>
<defs>
<clipPath id="clip0_15_244">
<rect width="30" height="30" fill="white"/>
</clipPath>
</defs>
</svg>
