<svg width="144" height="29" viewBox="0 0 144 29" fill="none" xmlns="http://www.w3.org/2000/svg">
<path d="M6.88843 12.353C9.36577 6.36606 10.6044 3.3726 13.1272 1.6863C15.6499 0 18.8895 0 25.3688 0H143L136.112 16.647C133.634 22.6339 132.396 25.6274 129.873 27.3137C127.35 29 124.11 29 117.631 29H0L6.88843 12.353Z" fill="#202FD7"/>
<path d="M51.992 11.024L51.432 13.296H52.888L52.344 15.52H50.872L49.752 20H47.192L49.992 8.8H54.104L53.544 11.024H51.992ZM59.4543 8.8L56.6543 20H54.0943L56.8943 8.8H59.4543ZM68.3438 8.8L65.5598 20H62.7758L63.3038 13.296H63.1598L62.0558 20H59.4958L62.2958 8.8H65.0638L64.5838 15.552H64.7278L65.7838 8.8H68.3438ZM73.2133 11.024L72.7173 13.008H74.2533L73.7093 15.232H72.1733L71.5333 17.776H73.1013L72.5573 20H68.4293L71.2133 8.8H75.3253L74.7813 11.024H73.2133ZM83.1696 11.024H81.6336L79.3936 20H76.8336L79.0736 11.024H77.5216L78.0816 8.8H83.7136L83.1696 11.024ZM89.0301 8.8L86.8701 17.408C86.7955 17.76 86.8701 17.936 87.0941 17.936C87.3395 17.936 87.5048 17.7547 87.5901 17.392L89.7341 8.8H92.3101L90.1981 17.2C89.9635 18.1493 89.5261 18.88 88.8861 19.392C88.2461 19.904 87.4515 20.16 86.5021 20.16C85.5635 20.16 84.9128 19.9093 84.5501 19.408C84.1875 18.9067 84.1288 18.1707 84.3741 17.2L86.4701 8.8H89.0301ZM97.9856 8.784C98.935 8.784 99.607 9.03467 100.002 9.536C100.396 10.0267 100.466 10.7787 100.21 11.792L100.162 12C100.055 12.4267 99.911 12.8053 99.7296 13.136C99.5483 13.456 99.3456 13.728 99.1216 13.952C98.9083 14.176 98.6896 14.3467 98.4656 14.464C98.2523 14.5813 98.0496 14.6453 97.8576 14.656L97.8096 14.832C97.991 14.8427 98.1616 14.9173 98.3216 15.056C98.4816 15.184 98.6096 15.3653 98.7056 15.6C98.8123 15.8347 98.8763 16.1227 98.8976 16.464C98.919 16.7947 98.8763 17.168 98.7696 17.584L98.7376 17.712C98.6203 18.1707 98.5243 18.5813 98.4496 18.944C98.3856 19.3067 98.343 19.6587 98.3216 20H95.7616C95.783 19.6587 95.8256 19.3013 95.8896 18.928C95.9643 18.544 96.0603 18.1333 96.1776 17.696L96.4976 16.4C96.551 16.1973 96.5563 16.0587 96.5136 15.984C96.471 15.8987 96.3696 15.856 96.2096 15.856H95.9376L94.8976 20H92.3376L95.1376 8.784H97.9856ZM96.4816 13.632H96.7536C96.935 13.632 97.063 13.584 97.1376 13.488C97.223 13.3813 97.287 13.2427 97.3296 13.072L97.7136 11.552C97.767 11.36 97.7723 11.2213 97.7296 11.136C97.687 11.0507 97.5856 11.008 97.4256 11.008H97.1376L96.4816 13.632ZM108.813 11.024H107.277L105.037 20H102.477L104.717 11.024H103.165L103.725 8.8H109.357L108.813 11.024ZM114.689 8.8L112.449 17.776H114.017L113.457 20H109.345L112.129 8.8H114.689ZM120.999 11.024L120.503 13.008H122.039L121.496 15.232H119.959L119.319 17.776H120.887L120.344 20H116.215L118.999 8.8H123.112L122.568 11.024H120.999Z" fill="white"/>
<g clip-path="url(#clip0_28_24)">
<path d="M31.0627 24C29.4465 24 27.7595 23.528 26.1005 22.6019C24.3254 21.6111 22.9392 20.3038 22.2915 19.485C20.9429 17.7815 20.624 14.6192 21.4591 11.2325C22.3791 7.50142 27.7965 5.43822 28.0268 5.35218L28.0662 5.33893C28.1136 5.32489 29.2301 5 30.7802 5C30.7999 5 30.8196 5 30.8393 5C32.9496 5.01118 34.8479 5.63185 36.3291 6.79445C39.4254 9.22491 40.5203 12.2966 39.7747 16.4617C39.4166 18.4628 38.8094 19.9193 37.8636 21.0456C36.7146 22.414 35.0433 23.3216 32.7547 23.8199C32.2026 23.9402 31.6369 23.9997 31.0624 23.9997L31.0627 24ZM28.4232 6.42433C28.0665 6.56312 23.3441 8.45608 22.5937 11.4992C21.691 15.1598 22.3642 17.7137 23.2148 18.7885C23.6836 19.3808 24.9409 20.6422 26.6795 21.6127C28.7 22.7407 30.6583 23.1093 32.5005 22.708C36.7937 21.7731 38.0536 19.4564 38.6246 16.2657C39.2984 12.5019 38.3648 9.85468 35.5973 7.68258C34.3144 6.67567 32.7236 6.15662 30.8691 6.13998C29.5636 6.12829 28.5731 6.38352 28.4229 6.42433H28.4232Z" fill="white"/>
<path d="M30.8362 7.23272C30.8362 7.23272 29.3303 7.784 29.4431 8.48239C29.556 9.18078 30.1209 9.62185 30.7231 9.58521C31.3255 9.54856 31.7395 8.88682 31.7773 8.29863C31.8148 7.71044 31.1748 7.08561 30.836 7.23272H30.8362Z" fill="white"/>
<path d="M24.6242 11.9746C24.6242 11.9746 22.5158 14.7681 23.2311 15.3563C23.9464 15.9445 26.1677 13.7022 26.7701 13.0038C27.3726 12.3054 28.0501 10.7249 27.523 10.3205C26.9959 9.91604 25.6028 10.4676 24.6239 11.9746H24.6242Z" fill="white"/>
<path d="M30.0938 11.2977C30.0938 11.2977 28.7278 11.7538 28.916 13.1506C29.1043 14.5474 30.3467 14.4738 30.8362 14.3636C31.3258 14.2534 32.1162 13.8124 31.8526 12.5258C31.5891 11.2392 30.4058 11.1355 30.0938 11.2977Z" fill="white"/>
<path d="M26.8455 16.2753C26.8455 16.2753 25.1888 17.8928 26.6948 19.3631C28.2007 20.8334 29.0667 20.8701 30.3845 19.6204C31.7022 18.3707 29.782 14.2904 26.8455 16.2753Z" fill="white"/>
<path d="M32.6433 17.1574C32.6433 17.1574 32.3422 20.6127 33.961 20.8701C35.5798 21.1274 35.7119 17.2669 35.7305 17.0839C35.8059 16.3488 35.0527 13.7757 33.5846 15.2091C32.6739 16.0983 32.6433 17.1572 32.6433 17.1572V17.1574Z" fill="white"/>
<path d="M33.8103 9.65875C33.8103 9.65875 32.869 10.5409 33.5092 11.7908C34.1492 13.0405 36.2951 14.5108 37.4625 14.0698C38.6295 13.6287 36.6718 11.8275 36.4083 11.2026C36.1447 10.5778 34.827 8.59284 33.8106 9.65875H33.8103Z" fill="white"/>
</g>
<defs>
<clipPath id="clip0_28_24">
<rect width="19" height="19" fill="white" transform="translate(21 5)"/>
</clipPath>
</defs>
</svg>
