<svg width="117" height="21" viewBox="0 0 117 21" fill="none" xmlns="http://www.w3.org/2000/svg">
<path d="M31.86 5.38667H41.32V7.96667H34.87V10.475H40.1733V12.9117H34.87V18H31.86V5.38667ZM42.463 5.1H45.3297V7.39333H42.463V5.1ZM42.463 8.54H45.3297V18H42.463V8.54ZM52.963 8.25333C54.0141 8.25333 54.8443 8.59375 55.4535 9.27458C56.0626 9.95542 56.3672 10.9528 56.3672 12.2667V18H53.5005V13.4133C53.5005 12.3861 53.3811 11.6754 53.1422 11.2812C52.9153 10.8871 52.533 10.69 51.9955 10.69C51.6014 10.69 51.2311 10.8453 50.8847 11.1558C50.5503 11.4664 50.2815 11.9024 50.0785 12.4637C49.8754 13.0251 49.7739 13.6582 49.7739 14.3629V18H46.9072V8.54H49.7739V8.98792C49.7739 9.35819 49.6962 9.69861 49.541 10.0092C49.4096 10.2719 49.3439 10.4571 49.3439 10.5646C49.3439 10.6601 49.3797 10.7199 49.4514 10.7437C49.4753 10.7557 49.5051 10.7617 49.541 10.7617C49.6485 10.7617 49.744 10.6661 49.8276 10.475C50.1023 9.88972 50.5085 9.37611 51.046 8.93417C51.5835 8.48028 52.2225 8.25333 52.963 8.25333ZM66.981 12.9833C66.981 13.3775 66.9631 13.7119 66.9273 13.9867H60.0652C60.1607 14.5958 60.4056 15.0856 60.7998 15.4558C61.1939 15.8142 61.6836 15.9933 62.2689 15.9933C62.6989 15.9933 63.0573 15.8918 63.3439 15.6887C63.6306 15.4857 63.8336 15.205 63.9531 14.8467H66.8018C66.5988 15.8261 66.1091 16.6443 65.3327 17.3013C64.5563 17.9582 63.541 18.2867 62.2868 18.2867C61.2238 18.2867 60.31 18.0657 59.5456 17.6237C58.7811 17.1818 58.2018 16.5846 57.8077 15.8321C57.4254 15.0676 57.2343 14.2136 57.2343 13.27C57.2343 12.2906 57.4314 11.4246 57.8256 10.6721C58.2198 9.90764 58.7931 9.31639 59.5456 8.89833C60.2981 8.46833 61.1939 8.25333 62.2331 8.25333C63.0692 8.25333 63.8456 8.42653 64.5623 8.77292C65.2909 9.11931 65.8761 9.65083 66.3181 10.3675C66.76 11.0722 66.981 11.9442 66.981 12.9833ZM62.2868 10.475C61.1043 10.475 60.3877 11.0722 60.1368 12.2667H64.1681C64.1203 11.6933 63.9292 11.2514 63.5948 10.9408C63.2603 10.6303 62.8243 10.475 62.2868 10.475ZM77.016 5.38667V7.96667H73.0744V18H70.0644V7.96667H66.1227V5.38667H77.016ZM80.4165 18.2867C79.3654 18.2867 78.5353 17.9463 77.9261 17.2654C77.317 16.5846 77.0124 15.5872 77.0124 14.2733V8.54H79.879V13.1267C79.879 14.1539 79.9925 14.8646 80.2195 15.2587C80.4584 15.6529 80.8465 15.85 81.384 15.85C81.7782 15.85 82.1425 15.6947 82.477 15.3842C82.8234 15.0736 83.0981 14.6376 83.3011 14.0762C83.5042 13.5149 83.6057 12.8818 83.6057 12.1771V8.54H86.4724V18H83.6057V17.5521C83.6057 17.1818 83.6834 16.8414 83.8386 16.5308C83.97 16.2681 84.0357 16.0829 84.0357 15.9754C84.0357 15.8799 83.9999 15.8201 83.9282 15.7963C83.9043 15.7843 83.8745 15.7783 83.8386 15.7783C83.7311 15.7783 83.6356 15.8739 83.552 16.065C83.2534 16.6503 82.8353 17.1699 82.2978 17.6237C81.7722 18.0657 81.1452 18.2867 80.4165 18.2867ZM90.7291 10.5646C90.8247 10.5646 90.9143 10.481 90.9979 10.3137C91.2009 9.84792 91.4159 9.48361 91.6429 9.22083C91.8818 8.94611 92.2102 8.74306 92.6283 8.61167C93.0583 8.46833 93.6376 8.39667 94.3662 8.39667V11.1558C94.2348 11.1439 94.0437 11.1379 93.7929 11.1379C92.7418 11.1379 92.0012 11.3887 91.5712 11.8904C91.1412 12.3921 90.9262 13.2043 90.9262 14.3271V18H88.0595V8.54H90.9262V8.97C90.9262 9.25667 90.8426 9.56722 90.6754 9.90167C90.5798 10.1167 90.532 10.266 90.532 10.3496C90.532 10.481 90.5858 10.5526 90.6933 10.5646H90.7291ZM99.2398 10.8333V14.775C99.2398 15.0975 99.2518 15.3185 99.2757 15.4379C99.3115 15.5574 99.3832 15.635 99.4907 15.6708C99.5982 15.6947 99.8012 15.7067 100.1 15.7067H101.82V18H99.1682C98.5112 18 97.9797 17.9164 97.5736 17.7492C97.1675 17.57 96.8629 17.2714 96.6598 16.8533C96.4687 16.4353 96.3732 15.85 96.3732 15.0975V10.8333H94.6532V8.54H96.3732V5.96H99.2398V8.54H101.82V10.8333H99.2398ZM105.973 5.1V18H103.107V5.1H105.973ZM116.584 12.9833C116.584 13.3775 116.566 13.7119 116.531 13.9867H109.668C109.764 14.5958 110.009 15.0856 110.403 15.4558C110.797 15.8142 111.287 15.9933 111.872 15.9933C112.302 15.9933 112.661 15.8918 112.947 15.6887C113.234 15.4857 113.437 15.205 113.556 14.8467H116.405C116.202 15.8261 115.712 16.6443 114.936 17.3013C114.16 17.9582 113.144 18.2867 111.89 18.2867C110.827 18.2867 109.913 18.0657 109.149 17.6237C108.384 17.1818 107.805 16.5846 107.411 15.8321C107.029 15.0676 106.838 14.2136 106.838 13.27C106.838 12.2906 107.035 11.4246 107.429 10.6721C107.823 9.90764 108.396 9.31639 109.149 8.89833C109.901 8.46833 110.797 8.25333 111.836 8.25333C112.672 8.25333 113.449 8.42653 114.166 8.77292C114.894 9.11931 115.479 9.65083 115.921 10.3675C116.363 11.0722 116.584 11.9442 116.584 12.9833ZM111.89 10.475C110.708 10.475 109.991 11.0722 109.74 12.2667H113.771C113.724 11.6933 113.532 11.2514 113.198 10.9408C112.864 10.6303 112.428 10.475 111.89 10.475Z" fill="#2E3333"/>
<g clip-path="url(#clip0_259_25)">
<path d="M10.0626 21C8.44645 21 6.75947 20.528 5.10045 19.6019C3.32535 18.6111 1.93919 17.3038 1.2915 16.485C-0.0571203 14.7815 -0.376041 11.6192 0.459063 8.23249C1.37909 4.50142 6.79648 2.43822 7.02675 2.35218L7.06615 2.33893C7.11353 2.32489 8.23002 2 9.78017 2C9.79987 2 9.81957 2 9.83927 2C11.9495 2.01118 13.8479 2.63185 15.3291 3.79445C18.4254 6.22491 19.5203 9.29658 18.7746 13.4617C18.4166 15.4628 17.8094 16.9193 16.8635 18.0456C15.7145 19.414 14.0433 20.3216 11.7547 20.8199C11.2025 20.9402 10.6368 20.9997 10.0624 20.9997L10.0626 21ZM7.42314 3.42433C7.06642 3.56312 2.3441 5.45608 1.59365 8.49916C0.690932 12.1598 1.36418 14.7137 2.21472 15.7885C2.68352 16.3808 3.94083 17.6422 5.67946 18.6127C7.7 19.7407 9.65824 20.1093 11.5004 19.708C15.7936 18.7731 17.0536 16.4564 17.6246 13.2657C18.2984 9.50191 17.3648 6.85468 14.5973 4.68258C13.3144 3.67567 11.7235 3.15662 9.86908 3.13998C8.56358 3.12829 7.57301 3.38352 7.42287 3.42433H7.42314Z" fill="#2E3333"/>
<path d="M9.83613 4.23272C9.83613 4.23272 8.33018 4.784 8.44305 5.48239C8.55593 6.18078 9.12083 6.62185 9.723 6.58521C10.3254 6.54856 10.7394 5.88682 10.7772 5.29863C10.8147 4.71044 10.1748 4.08561 9.83587 4.23272H9.83613Z" fill="#2E3333"/>
<path d="M3.62418 8.97456C3.62418 8.97456 1.51579 11.7681 2.2311 12.3563C2.94641 12.9445 5.16767 10.7022 5.77011 10.0038C6.37254 9.30543 7.05005 7.72489 6.52295 7.32046C5.99585 6.91604 4.60277 7.46758 3.62391 8.97456H3.62418Z" fill="#2E3333"/>
<path d="M9.09372 8.29769C9.09372 8.29769 7.72779 8.75384 7.916 10.1506C8.10421 11.5474 9.34662 11.4738 9.83618 11.3636C10.3257 11.2534 11.1161 10.8124 10.8526 9.52578C10.589 8.23921 9.40572 8.1355 9.09372 8.29769V8.29769Z" fill="#2E3333"/>
<path d="M5.84554 13.2753C5.84554 13.2753 4.18891 14.8928 5.69486 16.3631C7.20082 17.8334 8.0668 17.8701 9.38455 16.6204C10.7023 15.3707 8.78211 11.2904 5.84554 13.2753V13.2753Z" fill="#2E3333"/>
<path d="M11.6432 14.1574C11.6432 14.1574 11.3421 17.6127 12.961 17.8701C14.5798 18.1274 14.7118 14.2669 14.7305 14.0839C14.8058 13.3488 14.0527 10.7757 12.5845 12.2091C11.6738 13.0983 11.6432 14.1572 11.6432 14.1572V14.1574Z" fill="#2E3333"/>
<path d="M12.8103 6.65875C12.8103 6.65875 11.869 7.5409 12.5092 8.79083C13.1492 10.0405 15.2951 11.5108 16.4625 11.0698C17.6295 10.6287 15.6718 8.82748 15.4083 8.20264C15.1447 7.57781 13.827 5.59284 12.8106 6.65875H12.8103Z" fill="#2E3333"/>
</g>
<defs>
<clipPath id="clip0_259_25">
<rect width="19" height="19" fill="white" transform="translate(0 2)"/>
</clipPath>
</defs>
</svg>
