<svg width="19" height="19" viewBox="0 0 19 19" fill="none" xmlns="http://www.w3.org/2000/svg">
<g clip-path="url(#clip0_101_173)">
<path d="M10.0626 19C8.44645 19 6.75947 18.528 5.10045 17.6019C3.32535 16.6111 1.93919 15.3038 1.2915 14.485C-0.0571203 12.7815 -0.376041 9.61917 0.459063 6.23249C1.37909 2.50142 6.79648 0.438216 7.02675 0.352184L7.06615 0.338928C7.11353 0.324893 8.23002 0 9.78017 0C9.79987 0 9.81957 0 9.83927 0C11.9495 0.0111763 13.8479 0.631852 15.3291 1.79445C18.4254 4.22491 19.5203 7.29658 18.7746 11.4617C18.4166 13.4628 17.8094 14.9193 16.8635 16.0456C15.7145 17.414 14.0433 18.3216 11.7547 18.8199C11.2025 18.9402 10.6368 18.9997 10.0624 18.9997L10.0626 19ZM7.42314 1.42433C7.06642 1.56312 2.3441 3.45608 1.59365 6.49916C0.690932 10.1598 1.36418 12.7137 2.21472 13.7885C2.68352 14.3808 3.94083 15.6422 5.67946 16.6127C7.7 17.7407 9.65824 18.1093 11.5004 17.708C15.7936 16.7731 17.0536 14.4564 17.6246 11.2657C18.2984 7.50191 17.3648 4.85468 14.5973 2.68258C13.3144 1.67567 11.7235 1.15662 9.86908 1.13998C8.56358 1.12829 7.57301 1.38352 7.42287 1.42433H7.42314Z" fill="#2E3333"/>
<path d="M9.83626 2.23272C9.83626 2.23272 8.3303 2.784 8.44318 3.48239C8.55605 4.18078 9.12095 4.62185 9.72312 4.58521C10.3256 4.54856 10.7395 3.88682 10.7773 3.29863C10.8148 2.71044 10.1749 2.08561 9.83599 2.23272H9.83626Z" fill="#2E3333"/>
<path d="M3.62418 6.9748C3.62418 6.9748 1.51579 9.76836 2.2311 10.3566C2.94641 10.9447 5.16767 8.70246 5.77011 8.00407C6.37254 7.30568 7.05005 5.72514 6.52295 5.32071C5.99585 4.91628 4.60277 5.46782 3.62391 6.9748H3.62418Z" fill="#2E3333"/>
<path d="M9.09372 6.29793C9.09372 6.29793 7.72779 6.75408 7.916 8.15086C8.10421 9.54764 9.34662 9.47408 9.83618 9.36388C10.3257 9.25368 11.1161 8.8126 10.8526 7.52603C10.589 6.23945 9.40572 6.13574 9.09372 6.29793V6.29793Z" fill="#2E3333"/>
<path d="M5.84542 11.2758C5.84542 11.2758 4.18879 12.8933 5.69474 14.3636C7.2007 15.8339 8.06668 15.8706 9.38442 14.6209C10.7022 13.3712 8.78199 9.29084 5.84542 11.2758V11.2758Z" fill="#2E3333"/>
<path d="M11.6432 12.1577C11.6432 12.1577 11.3421 15.613 12.961 15.8703C14.5798 16.1276 14.7118 12.2671 14.7305 12.0841C14.8058 11.3491 14.0527 8.77593 12.5845 10.2094C11.6738 11.0985 11.6432 12.1574 11.6432 12.1574V12.1577Z" fill="#2E3333"/>
<path d="M12.8103 4.65851C12.8103 4.65851 11.869 5.54065 12.5092 6.79058C13.1492 8.04025 15.2951 9.51059 16.4625 9.06951C17.6295 8.62844 15.6718 6.82723 15.4083 6.2024C15.1447 5.57756 13.8267 3.5926 12.8103 4.65851Z" fill="#2E3333"/>
</g>
<defs>
<clipPath id="clip0_101_173">
<rect width="19" height="19" fill="white"/>
</clipPath>
</defs>
</svg>
