<svg width="121" height="34" viewBox="0 0 121 34" fill="none" xmlns="http://www.w3.org/2000/svg">
<path d="M7.81601 0.766627C7.92392 0.317008 8.32601 0 8.7884 0H119.732C120.378 0 120.855 0.604547 120.704 1.23337L115.184 24.2334C115.076 24.683 114.674 25 114.212 25H3.2684C2.62171 25 2.14509 24.3955 2.29601 23.7666L7.81601 0.766627Z" fill="#457B9D"/>
<path d="M1.77208 28.6838C1.90819 28.2754 2.29033 28 2.72076 28H113.613C114.295 28 114.777 28.6687 114.561 29.3162L113.228 33.3162C113.092 33.7246 112.71 34 112.279 34H1.38743C0.704872 34 0.222899 33.3313 0.438743 32.6838L1.77208 28.6838Z" fill="#457B9D" fill-opacity="0.11"/>
<path d="M45.7136 8.52458L45.1848 10.6699H46.5596L46.046 12.7698H44.6561L43.5985 17H41.1813L43.8251 6.42461H47.7078L47.1791 8.52458H45.7136ZM52.7597 6.42461L50.1158 17H47.6986L50.3425 6.42461H52.7597ZM61.1534 6.42461L58.5247 17H55.896L56.3945 10.6699H56.2585L55.2161 17H52.7989L55.4427 6.42461H58.0564L57.6031 12.8001H57.7391L58.7362 6.42461H61.1534ZM65.7514 8.52458L65.283 10.3979H66.7334L66.2197 12.4979H64.7694L64.1651 14.9H65.6456L65.132 17H61.2342L63.8629 6.42461H67.7456L67.2319 8.52458H65.7514ZM75.1525 8.52458H73.7022L71.5871 17H69.1698L71.2849 8.52458H69.8195L70.3482 6.42461H75.6662L75.1525 8.52458ZM80.6862 6.42461L78.6466 14.5526C78.5761 14.8849 78.6466 15.0511 78.8581 15.0511C79.0898 15.0511 79.2459 14.8799 79.3265 14.5374L81.3509 6.42461H83.7832L81.789 14.3562C81.5674 15.2525 81.1545 15.9425 80.5502 16.4259C79.9459 16.9094 79.1955 17.1511 78.2991 17.1511C77.4128 17.1511 76.7984 16.9144 76.456 16.441C76.1136 15.9676 76.0582 15.2727 76.2898 14.3562L78.2689 6.42461H80.6862ZM89.1422 6.4095C90.0386 6.4095 90.6731 6.64619 91.0458 7.11956C91.4185 7.58286 91.4839 8.29293 91.2422 9.24975L91.1969 9.44615C91.0962 9.84902 90.9602 10.2066 90.789 10.5188C90.6177 10.8209 90.4264 11.0778 90.2149 11.2893C90.0134 11.5008 89.807 11.6619 89.5955 11.7727C89.394 11.8835 89.2027 11.944 89.0214 11.954L88.976 12.1202C89.1473 12.1303 89.3084 12.2008 89.4595 12.3317C89.6106 12.4526 89.7314 12.6238 89.8221 12.8454C89.9228 13.067 89.9832 13.3389 90.0034 13.6612C90.0235 13.9734 89.9832 14.3259 89.8825 14.7187L89.8523 14.8396C89.7415 15.2727 89.6509 15.6605 89.5804 16.0029C89.5199 16.3453 89.4796 16.6777 89.4595 17H87.0423C87.0624 16.6777 87.1027 16.3403 87.1631 15.9878C87.2336 15.6252 87.3243 15.2374 87.4351 14.8245L87.7372 13.6008C87.7876 13.4094 87.7926 13.2785 87.7523 13.208C87.712 13.1274 87.6164 13.0871 87.4653 13.0871H87.2084L86.2264 17H83.8092L86.4531 6.4095H89.1422ZM87.7221 10.9871H87.9789C88.1502 10.9871 88.271 10.9418 88.3415 10.8512C88.4221 10.7504 88.4825 10.6195 88.5228 10.4584L88.8854 9.02313C88.9358 8.84184 88.9408 8.71091 88.9005 8.63033C88.8602 8.54976 88.7645 8.50947 88.6135 8.50947H88.3415L87.7221 10.9871ZM99.3655 8.52458H97.9152L95.8001 17H93.3829L95.498 8.52458H94.0325L94.5613 6.42461H99.8792L99.3655 8.52458ZM104.914 6.42461L102.799 14.9H104.279L103.751 17H99.868L102.497 6.42461H104.914ZM110.873 8.52458L110.404 10.3979H111.855L111.341 12.4979H109.891L109.286 14.9H110.767L110.253 17H106.355L108.984 6.42461H112.867L112.353 8.52458H110.873Z" fill="white"/>
</svg>
